<?xml version="1.0" standalone="no"?>
<!DOCTYPE svg PUBLIC "-//W3C//DTD SVG 20010904//EN"
 "http://www.w3.org/TR/2001/REC-SVG-20010904/DTD/svg10.dtd">
<svg version="1.0" xmlns="http://www.w3.org/2000/svg"
 width="512.000000pt" height="512.000000pt" viewBox="0 0 512.000000 512.000000"
 preserveAspectRatio="xMidYMid meet">
<metadata>
Created by potrace 1.14, written by Peter Selinger 2001-2017
</metadata>
<g transform="translate(0.000000,512.000000) scale(0.100000,-0.100000)"
fill="#000000" stroke="none">
<path d="M247 4799 c-92 -22 -167 -82 -214 -171 l-28 -53 0 -2005 0 -2005 24
-49 c31 -62 93 -124 156 -156 l50 -25 2325 0 2325 0 49 23 c82 40 143 113 175
211 8 24 10 475 8 1570 -2 1641 1 1542 -47 1606 -63 85 -189 121 -283 82 -19
-9 -282 -179 -584 -379 -301 -200 -613 -407 -693 -459 l-145 -96 -5 386 c-6
425 -5 424 -71 489 -65 65 -154 89 -244 64 -29 -9 -826 -525 -1005 -652 -56
-39 -435 -288 -437 -286 -2 1 -3 372 -3 823 0 731 -2 826 -17 869 -30 90 -84
150 -173 193 l-55 26 -535 2 c-294 1 -552 -3 -573 -8z"/>
</g>
</svg>
